{
    "accessors" : [
        {
            "bufferView" : 0, 
            "componentType" : 5123, 
            "count" : 6150, 
            "max" : [
                4649
            ], 
            "min" : [
                0
            ], 
            "type" : "SCALAR"
        }, 
        {
            "bufferView" : 1, 
            "componentType" : 5126, 
            "count" : 4650, 
            "max" : [
                9.204256057739258, 
                8.094381332397461, 
                6.293787956237793
            ], 
            "min" : [
                -5.6102447509765625, 
                -15.50027084350586, 
                -8.237208366394043
            ], 
            "type" : "VEC3"
        }, 
        {
            "bufferView" : 2, 
            "componentType" : 5126, 
            "count" : 4650, 
            "max" : [
                0.9994353652000427, 
                0.9995721578598022, 
                0.99720299243927
            ], 
            "min" : [
                -0.9983687996864319, 
                -0.9988333582878113, 
                -0.9998999834060669
            ], 
            "type" : "VEC3"
        }, 
        {
            "bufferView" : 3, 
            "componentType" : 5126, 
            "count" : 4650, 
            "max" : [
                0.9975151419639587, 
                0.9990218281745911, 
                0.9973520040512085, 
                1.0
            ], 
            "min" : [
                -0.9985461831092834, 
                -0.9982895255088806, 
                -0.9980770945549011, 
                1.0
            ], 
            "type" : "VEC4"
        }, 
        {
            "bufferView" : 4, 
            "componentType" : 5126, 
            "count" : 4650, 
            "max" : [
                0.469696044921875, 
                0.22162306308746338
            ], 
            "min" : [
                0.15337693691253662, 
                0.038116455078125
            ], 
            "type" : "VEC2"
        }
    ], 
    "asset" : {
        "generator" : "Khronos Blender glTF 2.0 exporter", 
        "version" : "2.0"
    }, 
    "bufferViews" : [
        {
            "buffer" : 0, 
            "byteLength" : 12300, 
            "byteOffset" : 0, 
            "target" : 34963
        }, 
        {
            "buffer" : 0, 
            "byteLength" : 55800, 
            "byteOffset" : 12300, 
            "target" : 34962
        }, 
        {
            "buffer" : 0, 
            "byteLength" : 55800, 
            "byteOffset" : 68100, 
            "target" : 34962
        }, 
        {
            "buffer" : 0, 
            "byteLength" : 74400, 
            "byteOffset" : 123900, 
            "target" : 34962
        }, 
        {
            "buffer" : 0, 
            "byteLength" : 37200, 
            "byteOffset" : 198300, 
            "target" : 34962
        }
    ], 
    "buffers" : [
        {
            "byteLength" : 235500, 
            "uri" : "data:application/octet-stream;base64,"
        }
    ], 
    "images" : [
        {
            "uri" : "pannel.png"
        }, 
        {
            "uri" : "TexturesCom_rock_NORMAL.png"
        }
    ], 
    "materials" : [
        {
            "name" : "Material", 
            "normalTexture" : {
                "index" : 1, 
                "scale" : -0.5999999046325684
            }, 
            "pbrMetallicRoughness" : {
                "baseColorTexture" : {
                    "index" : 0
                }, 
                "metallicFactor" : 0.0
            }
        }
    ], 
    "meshes" : [
        {
            "name" : "Cube.003", 
            "primitives" : [
                {
                    "attributes" : {
                        "NORMAL" : 2, 
                        "POSITION" : 1, 
                        "TANGENT" : 3, 
                        "TEXCOORD_0" : 4
                    }, 
                    "indices" : 0, 
                    "material" : 0
                }
            ]
        }
    ], 
    "nodes" : [
        {
            "mesh" : 0, 
            "name" : "tree", 
            "rotation" : [
                -0.18508760631084442, 
                0.8893628716468811, 
                0.08517907559871674, 
                0.4092933237552643
            ], 
            "scale" : [
                0.8989327549934387, 
                0.8989327549934387, 
                0.898932695388794
            ], 
            "translation" : [
                -0.04324483871459961, 
                14.204561233520508, 
                -0.2532310485839844
            ]
        }
    ], 
    "samplers" : [
        {}
    ], 
    "scene" : 0, 
    "scenes" : [
        {
            "name" : "Scene", 
            "nodes" : [
                0
            ]
        }
    ], 
    "textures" : [
        {
            "sampler" : 0, 
            "source" : 0
        }, 
        {
            "sampler" : 0, 
            "source" : 1
        }
    ]
}
