{
    "accessors" : [
        {
            "bufferView" : 0, 
            "componentType" : 5121, 
            "count" : 240, 
            "max" : [
                159
            ], 
            "min" : [
                0
            ], 
            "type" : "SCALAR"
        }, 
        {
            "bufferView" : 1, 
            "componentType" : 5126, 
            "count" : 160, 
            "max" : [
                1.556972622871399, 
                0.6354953050613403, 
                1.243494987487793
            ], 
            "min" : [
                -1.0885013341903687, 
                -0.9680333137512207, 
                -1.2663984298706055
            ], 
            "type" : "VEC3"
        }, 
        {
            "bufferView" : 2, 
            "componentType" : 5126, 
            "count" : 160, 
            "max" : [
                0.9436352252960205, 
                0.999032199382782, 
                0.9521973133087158
            ], 
            "min" : [
                -0.9333332180976868, 
                -0.9695019721984863, 
                -0.9536561369895935
            ], 
            "type" : "VEC3"
        }, 
        {
            "bufferView" : 3, 
            "componentType" : 5126, 
            "count" : 160, 
            "max" : [
                0.9758498072624207, 
                0.993206799030304, 
                0.9043745398521423, 
                1.0
            ], 
            "min" : [
                -0.9889369606971741, 
                -0.15396711230278015, 
                -0.8932888507843018, 
                1.0
            ], 
            "type" : "VEC4"
        }, 
        {
            "bufferView" : 4, 
            "componentType" : 5126, 
            "count" : 160, 
            "max" : [
                0.23559993505477905, 
                0.36066973209381104
            ], 
            "min" : [
                0.15412583947181702, 
                0.2791956663131714
            ], 
            "type" : "VEC2"
        }, 
        {
            "bufferView" : 5, 
            "componentType" : 5126, 
            "count" : 160, 
            "max" : [
                1.0, 
                1.0
            ], 
            "min" : [
                0.0, 
                0.0
            ], 
            "type" : "VEC2"
        }
    ], 
    "asset" : {
        "generator" : "Khronos Blender glTF 2.0 exporter", 
        "version" : "2.0"
    }, 
    "bufferViews" : [
        {
            "buffer" : 0, 
            "byteLength" : 240, 
            "byteOffset" : 0, 
            "target" : 34963
        }, 
        {
            "buffer" : 0, 
            "byteLength" : 1920, 
            "byteOffset" : 240, 
            "target" : 34962
        }, 
        {
            "buffer" : 0, 
            "byteLength" : 1920, 
            "byteOffset" : 2160, 
            "target" : 34962
        }, 
        {
            "buffer" : 0, 
            "byteLength" : 2560, 
            "byteOffset" : 4080, 
            "target" : 34962
        }, 
        {
            "buffer" : 0, 
            "byteLength" : 1280, 
            "byteOffset" : 6640, 
            "target" : 34962
        }, 
        {
            "buffer" : 0, 
            "byteLength" : 1280, 
            "byteOffset" : 7920, 
            "target" : 34962
        }
    ], 
    "buffers" : [
        {
            "byteLength" : 9200, 
            "uri" : "data:application/octet-stream;base64,"
        }
    ], 
    "images" : [
        {
            "uri" : "pannel.png"
        }
    ], 
    "materials" : [
        {
            "name" : "mat2", 
            "pbrMetallicRoughness" : {
                "baseColorTexture" : {
                    "index" : 0
                }, 
                "metallicFactor" : 0.0
            }
        }
    ], 
    "meshes" : [
        {
            "name" : "Cube", 
            "primitives" : [
                {
                    "attributes" : {
                        "NORMAL" : 2, 
                        "POSITION" : 1, 
                        "TANGENT" : 3, 
                        "TEXCOORD_0" : 4, 
                        "TEXCOORD_1" : 5
                    }, 
                    "indices" : 0, 
                    "material" : 0
                }
            ]
        }
    ], 
    "nodes" : [
        {
            "mesh" : 0, 
            "name" : "Cube", 
            "rotation" : [
                1.0, 
                0.0, 
                -0.0, 
                -1.6292068494294654e-07
            ], 
            "translation" : [
                -0.3371555209159851, 
                0.057300567626953125, 
                -3.4542789459228516
            ]
        }
    ], 
    "samplers" : [
        {}
    ], 
    "scene" : 0, 
    "scenes" : [
        {
            "name" : "Scene", 
            "nodes" : [
                0
            ]
        }
    ], 
    "textures" : [
        {
            "sampler" : 0, 
            "source" : 0
        }
    ]
}
