{
    "accessors" : [
        {
            "bufferView" : 0, 
            "componentType" : 5121, 
            "count" : 672, 
            "max" : [
                176
            ], 
            "min" : [
                0
            ], 
            "type" : "SCALAR"
        }, 
        {
            "bufferView" : 1, 
            "componentType" : 5126, 
            "count" : 177, 
            "max" : [
                1.505431890487671, 
                2.133333921432495, 
                1.0046718120574951
            ], 
            "min" : [
                -2.058999538421631, 
                -1.0, 
                -2.525942802429199
            ], 
            "type" : "VEC3"
        }, 
        {
            "bufferView" : 2, 
            "componentType" : 5126, 
            "count" : 177, 
            "max" : [
                0.999969482421875, 
                0.99920654296875, 
                0.999969482421875
            ], 
            "min" : [
                -0.9980773329734802, 
                -0.999969482421875, 
                -0.9667348265647888
            ], 
            "type" : "VEC3"
        }, 
        {
            "bufferView" : 3, 
            "componentType" : 5126, 
            "count" : 177, 
            "max" : [
                0.9999687671661377, 
                0.9991850852966309, 
                0.9998261332511902, 
                1.0
            ], 
            "min" : [
                -0.9999987483024597, 
                -0.9992347955703735, 
                -0.9994974136352539, 
                1.0
            ], 
            "type" : "VEC4"
        }, 
        {
            "bufferView" : 4, 
            "componentType" : 5126, 
            "count" : 177, 
            "max" : [
                4.674709320068359, 
                5.746260166168213
            ], 
            "min" : [
                -4.409824848175049, 
                -7.299166679382324
            ], 
            "type" : "VEC2"
        }
    ], 
    "asset" : {
        "generator" : "Khronos Blender glTF 2.0 exporter", 
        "version" : "2.0"
    }, 
    "bufferViews" : [
        {
            "buffer" : 0, 
            "byteLength" : 672, 
            "byteOffset" : 0, 
            "target" : 34963
        }, 
        {
            "buffer" : 0, 
            "byteLength" : 2124, 
            "byteOffset" : 672, 
            "target" : 34962
        }, 
        {
            "buffer" : 0, 
            "byteLength" : 2124, 
            "byteOffset" : 2796, 
            "target" : 34962
        }, 
        {
            "buffer" : 0, 
            "byteLength" : 2832, 
            "byteOffset" : 4920, 
            "target" : 34962
        }, 
        {
            "buffer" : 0, 
            "byteLength" : 1416, 
            "byteOffset" : 7752, 
            "target" : 34962
        }
    ], 
    "buffers" : [
        {
            "byteLength" : 9168, 
            "uri" : "rock01.bin"
        }
    ], 
    "cameras" : [
        {
            "name" : "Camera", 
            "perspective" : {
                "aspectRatio" : 1.7777777777777777, 
                "yfov" : 0.5033799372418416, 
                "zfar" : 100.0, 
                "znear" : 0.10000000149011612
            }, 
            "type" : "perspective"
        }
    ], 
    "images" : [
        {
            "uri" : "TexturesCom_SnowFootsteps_1024_albedo.png"
        }, 
        {
            "uri" : "TexturesCom_SnowFootsteps_1024_normal.png"
        }
    ], 
    "materials" : [
        {
            "name" : "Material", 
            "normalTexture" : {
                "index" : 1
            }, 
            "pbrMetallicRoughness" : {
                "baseColorTexture" : {
                    "index" : 0
                }
            }
        }
    ], 
    "meshes" : [
        {
            "name" : "Cube", 
            "primitives" : [
                {
                    "attributes" : {
                        "NORMAL" : 2, 
                        "POSITION" : 1, 
                        "TANGENT" : 3, 
                        "TEXCOORD_0" : 4
                    }, 
                    "indices" : 0, 
                    "material" : 0
                }
            ]
        }
    ], 
    "nodes" : [
        {
            "camera" : 0, 
            "name" : "Correction_Camera", 
            "rotation" : [
                -0.7071067690849304, 
                -0.0, 
                0.0, 
                0.7071067690849304
            ]
        }, 
        {
            "children" : [
                0
            ], 
            "name" : "Camera", 
            "rotation" : [
                0.483536034822464, 
                0.33687159419059753, 
                -0.20870360732078552, 
                0.7804827094078064
            ], 
            "translation" : [
                7.481131553649902, 
                5.34366512298584, 
                6.5076398849487305
            ]
        }, 
        {
            "mesh" : 0, 
            "name" : "Cube"
        }, 
        {
            "name" : "Lamp", 
            "rotation" : [
                0.16907575726509094, 
                0.7558802962303162, 
                -0.27217137813568115, 
                0.570947527885437
            ], 
            "scale" : [
                1.0, 
                1.0, 
                0.9999999403953552
            ], 
            "translation" : [
                4.076245307922363, 
                5.903861999511719, 
                -1.0054539442062378
            ]
        }
    ], 
    "samplers" : [
        {}
    ], 
    "scene" : 0, 
    "scenes" : [
        {
            "name" : "Scene", 
            "nodes" : [
                2, 
                3, 
                1
            ]
        }
    ], 
    "textures" : [
        {
            "sampler" : 0, 
            "source" : 0
        }, 
        {
            "sampler" : 0, 
            "source" : 1
        }
    ]
}
